<svg width="7" height="12" viewBox="0 0 7 12" fill="none" xmlns="http://www.w3.org/2000/svg">
<path fill-rule="evenodd" clip-rule="evenodd" d="M2.06055 4.29688H0.943359V6.1875H2.08203V11.6875H4.33789V6.1875H5.86328L6.05664 4.29688H4.31641V3.35156C4.31641 3.33288 4.31656 3.31465 4.31686 3.29688C4.31863 3.19197 4.32564 3.10278 4.33789 3.0293C4.35221 2.92904 4.38086 2.85026 4.42383 2.79297C4.48112 2.72135 4.5599 2.67122 4.66016 2.64258C4.76042 2.59961 4.90365 2.57812 5.08984 2.57812H6.03516V0.6875H4.50977C4.05143 0.6875 3.66471 0.744792 3.34961 0.859375C3.04883 0.973958 2.79818 1.13867 2.59766 1.35352C2.39714 1.55404 2.25391 1.81185 2.16797 2.12695C2.09635 2.42773 2.06055 2.77148 2.06055 3.1582V4.29688ZM3.13688 2.37522C3.08948 2.58131 3.06055 2.83959 3.06055 3.1582V5.1875H3.08203V10.6875H3.33789V5.29688H3.31641V3.35156C3.31641 3.19482 3.32454 3.03205 3.34966 2.8761C3.37951 2.67623 3.45028 2.42437 3.62383 2.19297L3.6332 2.18047L3.64296 2.16827C3.83244 1.93142 4.0757 1.78148 4.32659 1.69911C4.33435 1.69617 4.34212 1.69331 4.3499 1.69051C4.05774 1.70183 3.84621 1.74395 3.69836 1.79665C3.53033 1.86172 3.41425 1.94419 3.32871 2.03583L3.31695 2.04843L3.30476 2.06062C3.24665 2.11873 3.18368 2.21149 3.13688 2.37522Z" fill="white"/>
</svg>
