<svg width="9" height="12" viewBox="0 0 9 12" fill="none" xmlns="http://www.w3.org/2000/svg">
<path fill-rule="evenodd" clip-rule="evenodd" d="M6.62695 6.73389C6.81315 6.41878 6.94922 6.06787 7.03516 5.68115C7.13542 5.28011 7.18555 4.84326 7.18555 4.37061C7.18555 4.04118 7.12825 3.72607 7.01367 3.42529C6.89909 3.12451 6.72721 2.87386 6.49805 2.67334C6.2832 2.4585 6.01107 2.28662 5.68164 2.15771C5.36654 2.02881 4.99414 1.97152 4.56445 1.98584C4.0918 1.97152 3.66211 2.05029 3.27539 2.22217C2.90299 2.39404 2.58073 2.61605 2.30859 2.88818C2.03646 3.16032 1.82878 3.48258 1.68555 3.85498C1.54232 4.21305 1.4707 4.58545 1.4707 4.97217C1.4707 5.12972 1.47786 5.26579 1.49219 5.38037C1.52083 5.48063 1.54948 5.58805 1.57812 5.70264C1.62109 5.8029 1.66406 5.896 1.70703 5.98193C1.74243 6.02619 1.78057 6.07591 1.82144 6.1311C1.84671 6.16522 1.87303 6.20144 1.90039 6.23975C1.91051 6.24481 1.91974 6.25165 1.92807 6.26029C1.94272 6.27547 1.95461 6.29618 1.96373 6.32243C1.96411 6.3235 1.96448 6.32459 1.96484 6.32568C1.96607 6.32813 1.96724 6.33053 1.96836 6.33288C1.98034 6.35795 1.98633 6.37704 1.98633 6.39014C1.9905 6.3943 1.99406 6.39969 1.99701 6.40628C2.00421 6.42234 2.00781 6.44561 2.00781 6.47607C2.00781 6.49517 2.00463 6.51427 1.99826 6.53337C1.99508 6.54291 1.9911 6.55246 1.98633 6.56201L1.94336 6.69092C1.94336 6.71956 1.9362 6.76253 1.92188 6.81982C1.90755 6.87712 1.89323 6.92725 1.87891 6.97021C1.86458 6.99886 1.85742 7.03467 1.85742 7.07764C1.8431 7.10628 1.82161 7.14209 1.79297 7.18506C1.77865 7.2137 1.75716 7.23519 1.72852 7.24951C1.69987 7.24951 1.67122 7.25667 1.64258 7.271C1.62043 7.271 1.59401 7.26244 1.56331 7.24532C1.55429 7.24029 1.54491 7.23453 1.53516 7.22803C1.43091 7.18633 1.33172 7.1362 1.23759 7.07764C1.13772 7.01551 1.04355 6.9439 0.955078 6.86279C0.932636 6.83831 0.910775 6.81354 0.889495 6.78847C0.761384 6.63758 0.654338 6.47616 0.568359 6.3042C0.468099 6.10368 0.389323 5.87451 0.332031 5.6167C0.27474 5.35889 0.246094 5.10107 0.246094 4.84326C0.246094 4.38493 0.339193 3.92659 0.525391 3.46826C0.725911 3.00993 1.01237 2.5874 1.38477 2.20068C1.75716 1.81396 2.22266 1.50602 2.78125 1.27686C3.33984 1.03337 3.99154 0.90446 4.73633 0.890137C5.33789 0.90446 5.88216 1.01188 6.36914 1.2124C6.87044 1.3986 7.29297 1.66357 7.63672 2.00732C7.98047 2.35107 8.24544 2.73779 8.43164 3.16748C8.63216 3.58284 8.73242 4.02686 8.73242 4.49951C8.73242 5.1154 8.64648 5.68831 8.47461 6.21826C8.31706 6.74821 8.08789 7.20654 7.78711 7.59326C7.48633 7.96566 7.12825 8.26644 6.71289 8.49561C6.29753 8.71045 5.83919 8.81071 5.33789 8.79639C5.16602 8.81071 4.99414 8.79639 4.82227 8.75342C4.76716 8.73338 4.71293 8.71334 4.65957 8.6933C4.56039 8.65605 4.46423 8.6188 4.37109 8.58154C4.34258 8.5657 4.31476 8.54916 4.28764 8.53191C4.19219 8.4712 4.10542 8.40181 4.02734 8.32373C3.92708 8.22347 3.84831 8.13037 3.79102 8.04443L3.57617 8.90381C3.54922 9.01161 3.52385 9.10833 3.50007 9.19395C3.4733 9.29033 3.44854 9.37265 3.42578 9.44092L3.36133 9.69873V9.7417C3.36073 9.74349 3.36013 9.74528 3.35954 9.74707C3.31716 9.87399 3.27479 9.99394 3.23242 10.1069C3.18945 10.2215 3.13932 10.3433 3.08203 10.4722C3.04875 10.5387 3.01304 10.6029 2.97492 10.6646C2.9747 10.665 2.97448 10.6653 2.97426 10.6657C2.97436 10.6655 2.97415 10.6659 2.97426 10.6657C2.97368 10.6666 2.97278 10.6681 2.97221 10.669C2.97083 10.6712 2.96945 10.6735 2.96806 10.6757C2.96618 10.6787 2.96429 10.6817 2.96239 10.6847C2.95071 10.7032 2.9388 10.7215 2.92667 10.7396C2.91423 10.7581 2.90157 10.7764 2.88867 10.7944L2.7168 11.0952C2.54492 11.2098 2.40885 11.2599 2.30859 11.2456C2.22266 11.2456 2.15104 11.2098 2.09375 11.1382C2.05078 11.0666 2.02214 10.995 2.00781 10.9233C1.99349 10.866 1.98633 10.8302 1.98633 10.8159C1.97956 10.7685 1.97439 10.7195 1.97082 10.6689C1.96684 10.6125 1.96484 10.5541 1.96484 10.4937V10.1284L2.00781 9.7417C2.03646 9.61279 2.0651 9.49821 2.09375 9.39795C2.09375 9.38363 2.10091 9.34066 2.11523 9.26904C2.14388 9.18311 2.18685 9.01839 2.24414 8.7749C2.28999 8.56858 2.3496 8.30263 2.42297 7.97705C2.44128 7.8958 2.46045 7.81084 2.48047 7.72217C2.48554 7.69972 2.4907 7.6769 2.49595 7.65371C2.50372 7.61944 2.51168 7.58437 2.51985 7.5485C2.52912 7.50775 2.53866 7.46597 2.54845 7.42315C2.55638 7.38849 2.56447 7.35315 2.57274 7.31713C2.58081 7.28197 2.58904 7.24617 2.59743 7.20972C2.60736 7.1666 2.61751 7.12257 2.62789 7.07764C2.63374 7.0523 2.63967 7.02668 2.64566 7.00077C2.65104 6.97756 2.65646 6.95412 2.66195 6.93045C2.66406 6.92134 2.66619 6.91219 2.66831 6.90301C2.67636 6.86833 2.68452 6.83316 2.69281 6.79751C2.70096 6.76245 2.70923 6.72692 2.71761 6.69092C2.73387 6.62108 2.75058 6.54946 2.76773 6.47607C2.77437 6.44769 2.78107 6.41905 2.78783 6.39014C2.81547 6.27205 2.84421 6.14955 2.87405 6.02261C2.87889 6.00201 2.88377 5.98129 2.88867 5.96045C2.88038 5.94386 2.87235 5.92647 2.86459 5.90828C2.86084 5.89949 2.85715 5.89051 2.85352 5.88134C2.8453 5.86056 2.8374 5.83882 2.82982 5.81612C2.81182 5.76223 2.79563 5.70291 2.78125 5.63818C2.7526 5.50928 2.73112 5.40186 2.7168 5.31592C2.70247 5.21566 2.69531 5.12972 2.69531 5.05811V4.97217C2.69531 4.97097 2.69531 4.96978 2.69531 4.96859C2.69559 4.72657 2.72424 4.51292 2.78125 4.32764C2.85286 4.12712 2.9388 3.95524 3.03906 3.81201C3.15365 3.65446 3.28255 3.53988 3.42578 3.46826C3.58333 3.38232 3.74089 3.33219 3.89844 3.31787C4.04167 3.33219 4.16341 3.36084 4.26367 3.40381C4.37826 3.44678 4.47135 3.51839 4.54297 3.61865C4.61458 3.71891 4.66471 3.82633 4.69336 3.94092C4.73633 4.04118 4.75781 4.16292 4.75781 4.30615C4.75781 4.43506 4.73633 4.59261 4.69336 4.77881C4.65039 4.95068 4.60026 5.12972 4.54297 5.31592C4.48568 5.50212 4.42122 5.70264 4.34961 5.91748C4.29232 6.118 4.24219 6.31136 4.19922 6.49756C4.17463 6.6041 4.16177 6.70361 4.16063 6.79608C4.15978 6.86522 4.16548 6.93042 4.17773 6.9917C4.2207 7.12061 4.28516 7.24951 4.37109 7.37842C4.42482 7.43981 4.48471 7.49299 4.55076 7.53793C4.60359 7.57388 4.66037 7.60457 4.72108 7.62999C4.72614 7.63211 4.73122 7.63419 4.73633 7.63623C4.7478 7.64082 4.75931 7.64527 4.77087 7.64958C4.90369 7.69912 5.04256 7.73048 5.1875 7.74365C5.48828 7.72933 5.76042 7.63623 6.00391 7.46436C6.2474 7.29248 6.45508 7.04899 6.62695 6.73389Z" fill="white"/>
</svg>
