<svg width="14" height="12" viewBox="0 0 14 12" fill="none" xmlns="http://www.w3.org/2000/svg">
<path d="M11.8613 3.85034C11.8613 3.87899 11.8613 3.90763 11.8613 3.93628C11.8757 3.9506 11.8757 3.97209 11.8613 4.00073C11.8613 4.02938 11.8613 4.05802 11.8613 4.08667C11.8757 4.10099 11.8757 4.12248 11.8613 4.15112C11.8757 4.88159 11.7396 5.63354 11.4531 6.40698C11.1667 7.18042 10.7513 7.87508 10.207 8.49097C9.67708 9.09253 9.01107 9.59383 8.20898 9.99487C7.4069 10.3816 6.49023 10.5678 5.45898 10.5535C5.12956 10.5678 4.81445 10.5535 4.51367 10.5105C4.21289 10.4532 3.91211 10.3888 3.61133 10.3171C3.31055 10.2312 3.02409 10.1238 2.75195 9.99487C2.49414 9.85164 2.23633 9.70841 1.97852 9.56519C2.03581 9.55086 2.07878 9.55086 2.10742 9.56519C2.15039 9.57951 2.20052 9.58667 2.25781 9.58667C2.3151 9.57235 2.35807 9.57235 2.38672 9.58667C2.42969 9.58667 2.47982 9.57951 2.53711 9.56519C2.79492 9.57951 3.05273 9.56519 3.31055 9.52222C3.56836 9.46493 3.81185 9.40047 4.04102 9.32886C4.27018 9.25724 4.49219 9.15698 4.70703 9.02808C4.9362 8.89917 5.14388 8.7631 5.33008 8.61987C5.08659 8.60555 4.85026 8.56258 4.62109 8.49097C4.39193 8.41935 4.18424 8.31193 3.99805 8.1687C3.82617 8.01115 3.66862 7.84644 3.52539 7.67456C3.39648 7.48836 3.30339 7.27352 3.24609 7.03003C3.26042 7.05868 3.28906 7.073 3.33203 7.073C3.375 7.05868 3.41081 7.05868 3.43945 7.073C3.4681 7.08732 3.50391 7.09448 3.54688 7.09448C3.58984 7.08016 3.61849 7.08016 3.63281 7.09448C3.70443 7.08016 3.76172 7.08016 3.80469 7.09448C3.84766 7.09448 3.89779 7.08732 3.95508 7.073C4.01237 7.05868 4.0625 7.05151 4.10547 7.05151C4.14844 7.03719 4.19857 7.02287 4.25586 7.00854C3.98372 6.96558 3.74023 6.87248 3.52539 6.72925C3.31055 6.58602 3.11719 6.42131 2.94531 6.23511C2.78776 6.04891 2.66602 5.83407 2.58008 5.59058C2.49414 5.33276 2.44401 5.07495 2.42969 4.81714C2.44401 4.78849 2.44401 4.78133 2.42969 4.79565C2.44401 4.78133 2.44401 4.77417 2.42969 4.77417C2.42969 4.77417 2.43685 4.76701 2.45117 4.75269C2.50846 4.80998 2.58008 4.85295 2.66602 4.88159C2.75195 4.91024 2.83073 4.93888 2.90234 4.96753C2.98828 4.99618 3.08138 5.01766 3.18164 5.03198C3.2819 5.03198 3.36784 5.04631 3.43945 5.07495C3.31055 4.96037 3.17448 4.83862 3.03125 4.70972C2.90234 4.58081 2.79492 4.43042 2.70898 4.25854C2.63737 4.08667 2.57292 3.91479 2.51562 3.74292C2.45833 3.57104 2.43685 3.37769 2.45117 3.16284C2.43685 3.0769 2.43685 2.98381 2.45117 2.88354C2.47982 2.76896 2.5013 2.6687 2.51562 2.58276C2.54427 2.49683 2.58008 2.40373 2.62305 2.30347C2.66602 2.20321 2.70898 2.11727 2.75195 2.04565C3.03841 2.37508 3.34635 2.68302 3.67578 2.96948C4.01953 3.25594 4.39193 3.49943 4.79297 3.69995C5.19401 3.90047 5.60938 4.06519 6.03906 4.19409C6.46875 4.30868 6.92708 4.37313 7.41406 4.38745C7.38542 4.35881 7.37109 4.323 7.37109 4.28003C7.38542 4.22274 7.38542 4.17977 7.37109 4.15112C7.35677 4.10815 7.34961 4.06519 7.34961 4.02222C7.34961 3.96493 7.34245 3.92196 7.32812 3.89331C7.34245 3.56388 7.4069 3.27026 7.52148 3.01245C7.63607 2.74032 7.79362 2.50399 7.99414 2.30347C8.20898 2.08862 8.45247 1.92391 8.72461 1.80933C8.99674 1.69474 9.29036 1.63029 9.60547 1.61597C9.76302 1.63029 9.92057 1.65177 10.0781 1.68042C10.2357 1.70907 10.3789 1.7592 10.5078 1.83081C10.651 1.8881 10.7871 1.95972 10.916 2.04565C11.0449 2.13159 11.1523 2.23185 11.2383 2.34644C11.3815 2.31779 11.5104 2.28914 11.625 2.2605C11.7396 2.23185 11.8613 2.18888 11.9902 2.13159C12.1191 2.0743 12.2337 2.02417 12.334 1.9812C12.4486 1.92391 12.5703 1.85946 12.6992 1.78784C12.6419 1.93107 12.5846 2.05998 12.5273 2.17456C12.4701 2.28914 12.3913 2.40373 12.291 2.51831C12.2051 2.61857 12.112 2.71167 12.0117 2.79761C11.9258 2.88354 11.8184 2.96948 11.6895 3.05542C11.804 3.02677 11.9115 3.00529 12.0117 2.99097C12.1263 2.97664 12.2409 2.95516 12.3555 2.92651C12.4701 2.88354 12.5775 2.84774 12.6777 2.81909C12.778 2.79045 12.8854 2.74032 13 2.6687C12.9141 2.79761 12.8281 2.91219 12.7422 3.01245C12.6706 3.11271 12.5775 3.22013 12.4629 3.33472C12.3626 3.43498 12.2624 3.52808 12.1621 3.61401C12.0762 3.68563 11.9688 3.77157 11.8398 3.87183L11.8613 3.85034Z" fill="#FF9F0D"/>
<path fill-rule="evenodd" clip-rule="evenodd" d="M13.6857 0.667725L13.1634 1.97348C13.102 2.12708 13.0391 2.26894 12.9745 2.39811C12.9644 2.41845 12.9538 2.43864 12.9428 2.45867L13.416 2.94599C13.3252 3.08224 13.2319 3.20776 13.1358 3.32134C13.0466 3.44362 12.9387 3.56595 12.8164 3.68821C12.7078 3.79686 12.5981 3.89873 12.4875 3.99358L12.4822 3.9981C12.4482 4.02641 12.4114 4.05649 12.3719 4.08839C12.3731 4.13199 12.369 4.1733 12.3622 4.21075C12.3681 4.98892 12.2186 5.77983 11.922 6.58058C11.6142 7.41165 11.1669 8.15973 10.5817 8.82201C10.0045 9.477 9.28516 10.0157 8.43257 10.442L8.42614 10.4452C7.54776 10.8687 6.55716 11.0669 5.46629 11.0535C5.11368 11.0681 4.77231 11.0525 4.44294 11.0054L4.43148 11.0038L4.4201 11.0016C4.11179 10.9429 3.80359 10.8768 3.4955 10.8035L3.48466 10.8009L3.47395 10.7978C3.14788 10.7047 2.83569 10.5877 2.53789 10.4467L2.52326 10.4398L0.628662 9.3872L1.85723 9.08005C1.93044 9.06175 2.0791 9.03201 2.24069 9.08173C2.29047 9.07549 2.34956 9.07292 2.41337 9.08066C2.41417 9.08046 2.41499 9.08026 2.41582 9.08005L2.48925 9.0617L2.56483 9.0659C2.78117 9.07791 2.99783 9.06641 3.21545 9.03108C3.45587 8.9773 3.68124 8.91738 3.89186 8.85156C3.94581 8.8347 3.99945 8.81587 4.05279 8.79504C3.92686 8.72911 3.80687 8.65241 3.69317 8.56495L3.67607 8.5518L3.66017 8.53722C3.4725 8.36519 3.29939 8.18435 3.14126 7.99459L3.12698 7.97745L3.11428 7.95911C2.9462 7.71633 2.8295 7.44254 2.75937 7.14449L3.08167 7.0278C2.89952 6.89176 2.73145 6.74054 2.57789 6.57419L2.57057 6.56626L2.5636 6.55802C2.36461 6.32285 2.2135 6.05423 2.10857 5.75693L2.10565 5.74865C2.05326 5.5915 2.01213 5.43326 1.98241 5.27411H1.22256L2.07612 4.42056L2.08689 4.43133C2.07612 4.42056 2.07612 4.42056 2.07612 4.42056L2.08149 4.41519L2.0844 4.41227L2.08515 4.41152L2.18925 4.30742C2.13585 4.17219 2.08651 4.03671 2.04127 3.90097C1.96543 3.67346 1.93811 3.43205 1.94925 3.1834C1.93485 3.05969 1.93866 2.93538 1.95618 2.81277L1.95983 2.78724L1.96608 2.76222C1.99255 2.65635 2.01089 2.56965 2.02241 2.5005L2.02886 2.46181L2.04127 2.42459C2.07507 2.32318 2.11609 2.21697 2.16346 2.10645C2.2128 1.99132 2.2657 1.88416 2.32319 1.78835L2.67744 1.19793L3.12924 1.7175C3.3993 2.02807 3.68946 2.31841 3.99986 2.58864C4.31281 2.84892 4.65149 3.07014 5.01656 3.25268C5.38958 3.43919 5.77572 3.59255 6.17526 3.71288C6.38457 3.76834 6.60275 3.81106 6.83005 3.84068C6.8492 3.47245 6.92379 3.12776 7.06254 2.81387C7.20104 2.48647 7.39356 2.19686 7.64057 1.94985C7.8998 1.69063 8.19708 1.48886 8.53056 1.34845C8.86069 1.20945 9.21275 1.13324 9.58275 1.11642L9.61679 1.11487L9.65072 1.11796C9.82326 1.13365 9.99555 1.15715 10.1675 1.18842C10.3634 1.22403 10.5493 1.2863 10.7219 1.37805C10.887 1.44626 11.0443 1.53019 11.1933 1.62957C11.2703 1.68089 11.3429 1.73695 11.4106 1.79786C11.4429 1.79031 11.4739 1.78282 11.5037 1.77537C11.5855 1.75492 11.6797 1.72237 11.7871 1.67463C11.9117 1.61926 12.0238 1.57018 12.1232 1.5275C12.2268 1.47545 12.3378 1.41658 12.4564 1.3507L13.6857 0.667725ZM11.4857 2.80573C11.4374 2.8161 11.3876 2.82641 11.3363 2.83667L11.0273 2.89846L10.8383 2.64638C10.789 2.5807 10.7242 2.51868 10.6386 2.46162C10.5384 2.3948 10.4331 2.33937 10.3221 2.29499L10.2927 2.28322L10.265 2.26783C10.1878 2.22495 10.0971 2.192 9.98866 2.17229C9.85717 2.14839 9.72591 2.13001 9.59487 2.11713C9.34784 2.1318 9.12359 2.18378 8.91862 2.27008C8.70784 2.35883 8.51814 2.4865 8.34768 2.65696C8.19477 2.80986 8.07282 2.99139 7.98228 3.20642L7.97846 3.2155C7.90137 3.38896 7.85019 3.59406 7.83221 3.8368C7.84506 3.89947 7.84869 3.95695 7.84943 4.00217C7.86613 4.05153 7.87521 4.09988 7.87923 4.14547L8.65795 4.92419L7.39935 4.88717C6.87744 4.87182 6.38053 4.80257 5.91021 4.67715L5.90276 4.67516L5.89537 4.67294C5.43819 4.53579 4.99608 4.36047 4.56934 4.1471C4.13389 3.92938 3.7291 3.66473 3.35567 3.35353L3.3476 3.34681C3.20931 3.22655 3.07467 3.10261 2.94355 2.97515C2.94351 2.97531 2.94359 2.97499 2.94355 2.97515C2.93853 3.0216 2.9403 3.05627 2.94435 3.08058L2.95392 3.13798L2.95005 3.19604C2.93924 3.35808 2.95667 3.48491 2.98995 3.58475C3.04142 3.73917 3.09925 3.89403 3.16351 4.04933C3.22324 4.16544 3.29443 4.26392 3.37636 4.34759C3.51501 4.47234 3.64676 4.5902 3.77162 4.70119L3.25374 5.53913C3.25385 5.53917 3.25374 5.53913 3.25374 5.53913C3.25373 5.53915 3.23364 5.53192 3.18162 5.53192H3.14609L3.11091 5.5269C3.104 5.52591 3.09709 5.52489 3.0902 5.52384C3.15107 5.66755 3.22805 5.79348 3.32027 5.90407C3.46288 6.05729 3.62339 6.1936 3.80272 6.31316C3.95354 6.41371 4.12812 6.48212 4.33382 6.5146L4.37711 7.49356C4.32874 7.50565 4.2914 7.51652 4.26357 7.52579L4.18659 7.55145H4.10898C4.10835 7.55153 4.10747 7.55164 4.10634 7.5518C4.10237 7.55237 4.09619 7.55343 4.08761 7.55534C4.16102 7.6333 4.23822 7.70977 4.31925 7.78474C4.45349 7.88508 4.60289 7.96138 4.77021 8.01367C4.95988 8.07294 5.15595 8.10871 5.35942 8.12068L6.69673 8.19934L5.63492 9.01612C5.42937 9.17424 5.2034 9.32214 4.95814 9.46043C4.71265 9.6071 4.45653 9.72279 4.19014 9.80604C4.10819 9.83165 4.02474 9.85633 3.9398 9.88009C4.15845 9.92963 4.37703 9.97528 4.59556 10.017C4.85999 10.0541 5.14031 10.0668 5.43725 10.0539L5.45157 10.0533L5.46591 10.0535C6.43048 10.0669 7.26738 9.89303 7.98863 9.54597C8.73847 9.17059 9.34989 8.70746 9.83183 8.16039C10.3351 7.59089 10.7191 6.94907 10.9842 6.23326C11.2337 5.55959 11.3572 4.91422 11.3622 4.29458L11.3613 4.29372V4.15595L11.359 4.03767L11.3613 4.03303V3.85062L11.3775 3.85028L11.4141 3.77707C11.4077 3.78986 11.3961 3.81498 11.3866 3.85028H11.7794L11.4863 3.51821L11.7044 3.3001L11.4857 2.80573ZM2.41893 4.78485L2.07612 4.44204C2.06795 4.45021 2.04542 4.47327 2.0217 4.50884C2.01251 4.52264 1.9834 4.56637 1.96265 4.63309L1.98246 4.59347L1.98191 4.59458L1.98039 4.59781C1.97921 4.60038 1.97665 4.60602 1.97349 4.61393C1.97074 4.62079 1.96485 4.636 1.95898 4.65655C1.9553 4.66941 1.94118 4.71886 1.94044 4.78487C1.94065 4.80412 1.94201 4.8239 1.94466 4.84402C1.95374 4.91304 1.97805 4.98599 2.02372 5.05448C2.08185 5.14168 2.1557 5.19346 2.21412 5.22267C2.23645 5.23383 2.25821 5.24257 2.27884 5.24941C2.21428 5.20951 2.15341 5.16199 2.0976 5.10618L2.41893 4.78485Z" fill="#FF9F0D"/>
</svg>
